# xmcd CD database file
#
# Track frame offsets:
#        150
#        7059
#        21317
#        35511
#        47312
#        59983
#        77393
#        90353
#        92674
#        106469
#
# Disc length: 1564 seconds
#
# Revision: 0
# Processed by: cddbd v1.5.2PL0 Copyright (c) Steve Scherf et al.
# Submitted via: CUERipper 2.1.4
#
DISCID=73061a0a
DTITLE=Fats Kaplin and Kristi Rose - I Wonder As I Wander
DYEAR=2010
DGENRE=Country
TTITLE0=	Magi's Dream
TTITLE1=I Wonder As I Wander
TTITLE2=Comfort and Joy
TTITLE3=And The Shepherds Danced
TTITLE4=How Far Is It To Bethlehem
TTITLE5=Angels We Have Heard
TTITLE6=Waltz Balsam
TTITLE7=Good King
TTITLE8=	Come See the Baby
TTITLE9=Breaking Up Christmas
EXTD=
EXTT0=
EXTT1=
EXTT2=
EXTT3=
EXTT4=
EXTT5=
EXTT6=
EXTT7=
EXTT8=
EXTT9=
PLAYORDER=
